<svg xmlns="http://www.w3.org/2000/svg" width="1924" height="224" viewBox="0 0 1924 224" style="" class="">
  <g id="main" transform="translate(2 2)">
    <path id="Path_1286" data-name="Path 1286" d="M0,123.4H468.6l4.8-13.4,10.3,35.8,12.6-54.6,10.2,47,4.8-14.8h81.6l11.2-56.3,19.2,110.6,15.3-79.6,10.3,46,15-103.7L681,193.2,696.6,97l5,25.4h41.9l5.8,27.9,9.2-59.8L775,220,789.3,71.3l3.9,33.6,10.2-78.5L819,169.5l4.9-47.1h49.8l6-40.7,13.6,95.1,13-122.1,12.4,108.1L929.9,82l10.7,58.3,9.6-35.7,7.3,17.8h39.3l6.5,22.9,12.4-55,13.2,44.1,3-12h92.7" fill="none" stroke="#fff100" stroke-linecap="round" stroke-linejoin="round" stroke-width="4" class="idofnHSQ_0"></path>
    <path id="Path_1287" data-name="Path 1287" d="M1124.6,123.4v23.7H1171V106.7a45.8,45.8,0,1,0-46.4,0v16.7" fill="none" stroke="#fff100" stroke-linecap="round" stroke-linejoin="round" stroke-width="4" class="idofnHSQ_1"></path>
    <path id="Line_127" data-name="Line 127" transform="translate(1133.3 167.2)" fill="none" stroke="#fff100" stroke-linecap="round" stroke-linejoin="round" stroke-width="4" d="M0,0L29.3,0" class="idofnHSQ_2"></path>
    <path id="Line_128" data-name="Line 128" transform="translate(1126.4 157.3)" fill="none" stroke="#fff100" stroke-linecap="round" stroke-linejoin="round" stroke-width="4" d="M0,0L43,0" class="idofnHSQ_3"></path>
    <g id="グループ化_99-2_2_">
      <path id="パス_128_2_" d="M1153.2,147.1V86.9l14-20.6c5.2-7.7.4-18.5-8.9-19.1h-1a12.982,12.982,0,0,0-9.5,3.9,13.7,13.7,0,0,0-9.9-4.3h-1c-9.4.6-14,12.1-7.9,19.3l8.6,9.8" fill="none" stroke="#fff100" stroke-linecap="round" stroke-linejoin="round" stroke-width="4" class="idofnHSQ_4"></path>
    </g>
    <path id="Line_129" data-name="Line 129" transform="translate(1099.6 20.7)" fill="none" stroke="#fff100" stroke-linecap="round" stroke-linejoin="round" stroke-width="4" d="M0,0L8.5,5.8" class="idofnHSQ_5"></path>
    <path id="Line_130" data-name="Line 130" transform="translate(1121.6 5.4)" fill="none" stroke="#fff100" stroke-linecap="round" stroke-linejoin="round" stroke-width="4" d="M0,0L5.2,8.9" class="idofnHSQ_6"></path>
    <path id="Line_131" data-name="Line 131" transform="translate(1148)" fill="none" stroke="#fff100" stroke-linecap="round" stroke-linejoin="round" stroke-width="4" d="M0,0L0,10.3" class="idofnHSQ_7"></path>
    <path id="Line_132" data-name="Line 132" transform="translate(1169.1 5.4)" fill="none" stroke="#fff100" stroke-linecap="round" stroke-linejoin="round" stroke-width="4" d="M5.1,0L0,8.9" class="idofnHSQ_8"></path>
    <path id="Line_133" data-name="Line 133" transform="translate(1187.7 20.7)" fill="none" stroke="#fff100" stroke-linecap="round" stroke-linejoin="round" stroke-width="4" d="M0,5.8L8.5,0" class="idofnHSQ_9"></path>
    <path id="Path_1288" data-name="Path 1288" d="M1171,122.4h81.2l5.8,18.9,5.4-33,12.1,63.7,10.1-92.1,11.8,71.6,7.2-38.8,11.2,82.8,10.6-73.1h119.3l3.8-25.6,12.6,56.6,8.2-47.8,5,16.8H1920" fill="none" stroke="#fff100" stroke-linecap="round" stroke-linejoin="round" stroke-width="4" class="idofnHSQ_10"></path>
  </g>
<style data-made-with="vivus-instant">.idofnHSQ_0{stroke-dasharray:3003 3005;stroke-dashoffset:3004;animation:idofnHSQ_draw_0 7200ms linear 0ms infinite,idofnHSQ_fade 7200ms linear 0ms infinite;}.idofnHSQ_1{stroke-dasharray:367 369;stroke-dashoffset:368;animation:idofnHSQ_draw_1 7200ms linear 0ms infinite,idofnHSQ_fade 7200ms linear 0ms infinite;}.idofnHSQ_2{stroke-dasharray:30 32;stroke-dashoffset:31;animation:idofnHSQ_draw_2 7200ms linear 0ms infinite,idofnHSQ_fade 7200ms linear 0ms infinite;}.idofnHSQ_3{stroke-dasharray:43 45;stroke-dashoffset:44;animation:idofnHSQ_draw_3 7200ms linear 0ms infinite,idofnHSQ_fade 7200ms linear 0ms infinite;}.idofnHSQ_4{stroke-dasharray:173 175;stroke-dashoffset:174;animation:idofnHSQ_draw_4 7200ms linear 0ms infinite,idofnHSQ_fade 7200ms linear 0ms infinite;}.idofnHSQ_5{stroke-dasharray:11 13;stroke-dashoffset:12;animation:idofnHSQ_draw_5 7200ms linear 0ms infinite,idofnHSQ_fade 7200ms linear 0ms infinite;}.idofnHSQ_6{stroke-dasharray:11 13;stroke-dashoffset:12;animation:idofnHSQ_draw_6 7200ms linear 0ms infinite,idofnHSQ_fade 7200ms linear 0ms infinite;}.idofnHSQ_7{stroke-dasharray:11 13;stroke-dashoffset:12;animation:idofnHSQ_draw_7 7200ms linear 0ms infinite,idofnHSQ_fade 7200ms linear 0ms infinite;}.idofnHSQ_8{stroke-dasharray:11 13;stroke-dashoffset:12;animation:idofnHSQ_draw_8 7200ms linear 0ms infinite,idofnHSQ_fade 7200ms linear 0ms infinite;}.idofnHSQ_9{stroke-dasharray:11 13;stroke-dashoffset:12;animation:idofnHSQ_draw_9 7200ms linear 0ms infinite,idofnHSQ_fade 7200ms linear 0ms infinite;}.idofnHSQ_10{stroke-dasharray:1276 1278;stroke-dashoffset:1277;animation:idofnHSQ_draw_10 7200ms linear 0ms infinite,idofnHSQ_fade 7200ms linear 0ms infinite;}@keyframes idofnHSQ_draw{100%{stroke-dashoffset:0;}}@keyframes idofnHSQ_fade{0%{stroke-opacity:1;}94.44444444444444%{stroke-opacity:1;}100%{stroke-opacity:0;}}@keyframes idofnHSQ_draw_0{11.11111111111111%{stroke-dashoffset: 3004}36.35650575949084%{ stroke-dashoffset: 0;}100%{ stroke-dashoffset: 0;}}@keyframes idofnHSQ_draw_1{36.35650575949084%{stroke-dashoffset: 368}39.449150643180495%{ stroke-dashoffset: 0;}100%{ stroke-dashoffset: 0;}}@keyframes idofnHSQ_draw_2{39.449150643180495%{stroke-dashoffset: 31}39.7096723589261%{ stroke-dashoffset: 0;}100%{ stroke-dashoffset: 0;}}@keyframes idofnHSQ_draw_3{39.70967235892609%{stroke-dashoffset: 44}40.07944511675855%{ stroke-dashoffset: 0;}100%{ stroke-dashoffset: 0;}}@keyframes idofnHSQ_draw_4{40.07944511675855%{stroke-dashoffset: 174}41.54172829545964%{ stroke-dashoffset: 0;}100%{ stroke-dashoffset: 0;}}@keyframes idofnHSQ_draw_5{41.54172829545964%{stroke-dashoffset: 12}41.64257541123212%{ stroke-dashoffset: 0;}100%{ stroke-dashoffset: 0;}}@keyframes idofnHSQ_draw_6{41.64257541123212%{stroke-dashoffset: 12}41.74342252700461%{ stroke-dashoffset: 0;}100%{ stroke-dashoffset: 0;}}@keyframes idofnHSQ_draw_7{41.74342252700462%{stroke-dashoffset: 12}41.84426964277711%{ stroke-dashoffset: 0;}100%{ stroke-dashoffset: 0;}}@keyframes idofnHSQ_draw_8{41.84426964277711%{stroke-dashoffset: 12}41.94511675854959%{ stroke-dashoffset: 0;}100%{ stroke-dashoffset: 0;}}@keyframes idofnHSQ_draw_9{41.945116758549595%{stroke-dashoffset: 12}42.045963874322084%{ stroke-dashoffset: 0;}100%{ stroke-dashoffset: 0;}}@keyframes idofnHSQ_draw_10{42.045963874322084%{stroke-dashoffset: 1277}52.77777777777778%{ stroke-dashoffset: 0;}100%{ stroke-dashoffset: 0;}}</style></svg>
